PathFileType	4	(X/Y/Z)	C:/Users/beibeiliu/ov580/test_trc/User3\sequence.18_training_dense_right.trc
DataRate	CameraRate	NumFrames	NumMarkers	Units	OrigDataRate	OrigDataStartFrame	OrigNumFrames
120	120	22	19	mm	120	164	261
Frame#	Time	ThumbCMC			ThumbMCP			ThumbIP			ThumbTip			IndexMCP			IndexPIP			IndexTip			MiddleMCP			MiddlePIP			MiddleTip			RingMCP			RingPIP			RingTip			PinkyMCP			PinkyPIP			PinkyTip			BackHand1			BackHand2			BackHand3	
		X0	Y0	Z0	X1	Y1	Z1	X2	Y2	Z2	X3	Y3	Z3	X4	Y4	Z4	X5	Y5	Z5	X6	Y6	Z6	X7	Y7	Z7	X8	Y8	Z8	X9	Y9	Z9	X10	Y10	Z10	X11	Y11	Z11	X12	Y12	Z12	X13	Y13	Z13	X14	Y14	Z14	X15	Y15	Z15	X16	Y16	Z16	X17	Y17	Z17	X18	Y18	Z18	
163	1.35833	138.163	-30.4612	22.4403	125.132	-30.3321	-7.1541	114.268	-29.9513	-33.6889	106.094	-32.3871	-53.2944	147.78	-15.7085	-55.3259	145.898	-44.5434	-61.4411	148.196	-49.7171	-26.1339	168.266	-20.1131	-56.5877	166.524	-53.5861	-57.8543	162.336	-51.4404	-19.2871	189.352	-25.188	-53.5369	184.901	-55.4531	-54.615	179.354	-57.5565	-22.6098	210.316	-16.6169	-39.4853	209.611	-15.22	-60.3374	212.277	-10.8893	-84.3228	195.746	-2.53065	2.69813	200.17	-8.90973	30.5423	164.009	-4.83834	19.7988	
164	1.36667	139.938	-34.5513	21.008	124.088	-37.9878	-5.6968	111.906	-37.583	-34.2736	106.556	-42.5924	-50.9833	152.364	-22.6236	-54.2172	144.368	-55.7153	-58.6356	145.491	-57.5661	-27.8561	168.578	-30.9668	-57.5507	164.152	-62.1461	-54.5655	165.45	-55.456	-14.7825	188.993	-33.8292	-52.8941	185	-63.0462	-51.4145	178.03	-61.8434	-17.8711	211.078	-23.0975	-37.771	215.579	-24.4417	-58.5867	215.295	-20.447	-84.165	196.97	-6.51101	1.94388	199.475	-13.4323	34.2201	162.851	-8.85354	18.6884	
165	1.375	139.011	-37.3605	23.3862	122.644	-43.1069	-4.9837	108.204	-44.0295	-34.4105	104.095	-49.3007	-53.103	148.919	-30.9712	-52.9296	144.886	-64.9496	-56.567	143.817	-63.9981	-25.2979	173.961	-38.3791	-54.3078	167.158	-71.6634	-49.4606	166.982	-61.7449	-12.502	191.553	-42.6008	-50.7168	182.41	-70.0167	-50.5208	178.906	-68.7839	-14.9279	207.047	-30.4425	-40.5523	211.048	-32.4922	-57.0782	217.66	-31.1229	-81.8661	193.551	-11.6014	4.19819	198.463	-16.3812	30.7287	161.96	-11.8543	16.2005	
166	1.38333	136.666	-38.8509	19.0229	122.015	-46.083	-5.59465	106.512	-50.5974	-27.627	101.371	-55.5751	-47.3537	151.613	-40.9547	-53.1942	145.081	-73.6292	-52.8942	142.189	-69.3009	-21.2638	167.77	-49.3611	-55.8395	160.569	-80.0549	-46.9287	160.301	-64.5591	-8.81607	188.265	-51.3789	-48.4949	183.325	-81.6383	-42.6249	175.119	-76.4312	-11.4191	205.964	-39.8756	-34.8421	212.745	-44.2083	-57.0262	212.189	-46.0556	-78.5882	191.106	-18.2212	-1.42164	195.596	-19.7516	28.1943	160.372	-13.3268	14.1887	
167	1.39167	130.988	-38.8976	22.6862	118.076	-46.8702	-1.31886	102.013	-51.27	-30.5667	95.7119	-59.8946	-44.5302	142.757	-49.4614	-53.0877	136.805	-80.6767	-50.6873	140.428	-72.5905	-15.1291	162.78	-57.642	-53.3145	156.657	-87.8043	-44.0491	158.943	-70.8843	-5.18834	184.379	-62.3278	-45.3889	173.963	-92.0498	-36.3661	170.51	-82.2837	-5.39408	206.487	-51.3989	-35.4714	207.385	-57.5381	-55.0629	212.249	-64.3258	-77.1951	191.039	-24.9919	-2.77594	195.359	-21.8597	29.0683	161.217	-15.6101	11.8547	
168	1.4	128.219	-36.5871	25.6159	116.845	-46.4284	-0.710732	101.743	-51.7518	-23.2758	91.3754	-58.4731	-41.349	139.13	-54.8209	-48.0106	131.759	-87.6464	-40.7016	133.426	-76.2236	-10.9761	158.572	-64.9764	-49.3636	147.752	-94.8427	-38.6498	152.928	-76.9507	-3.31549	179.934	-74.1677	-41.6705	166.896	-101.311	-26.8509	160.119	-84.2244	1.43716	204.023	-65.2024	-37.2478	201.674	-73.5831	-55.0138	208.127	-81.3745	-73.6431	191.201	-30.2543	-2.1558	192.66	-25.1634	24.5245	161.751	-19.3743	12.9219	
169	1.40833	129.545	-31.9327	25.5654	111.501	-40.0929	1.95349	96.637	-46.5103	-19.8488	80.582	-52.8158	-37.4693	136.288	-64.8885	-47.1565	121.493	-88.3714	-36.6285	124.273	-75.8805	-6.4614	151.774	-71.6741	-46.3328	136.354	-98.4683	-28.5215	145.405	-75.5227	2.49287	169.901	-80.9838	-36.987	154.797	-104.926	-20.3771	152.186	-84.8821	7.01638	196.632	-76.4585	-34.5142	196.354	-86.7355	-47.5886	194.382	-99.7118	-71.408	191.12	-36.8457	-5.08743	190.532	-28.881	28.1816	161.396	-21.0226	11.6189	
170	1.41667	130.539	-28.918	22.4941	108.354	-34.7121	3.88671	90.6963	-40.3477	-21.1364	80.4152	-48.0971	-33.0277	130.051	-62.3481	-42.4165	113.177	-87.3842	-31.1406	121.958	-69.0045	0.255799	145.936	-78.0533	-41.2828	126.035	-97.1778	-20.1676	141.268	-72.6575	6.15439	158.893	-84.9425	-32.9856	144.514	-106.03	-17.7206	146.042	-85.8353	13.109	186.419	-83.461	-29.3963	182.513	-98.6737	-46.9508	181.511	-116.058	-64.2089	187.42	-44.5847	-4.65908	191.746	-32.2875	25.1265	163.392	-22.2991	11.2831	
171	1.425	129.086	-21.4808	22.443	112.069	-29.4121	5.46238	92.7483	-34.111	-18.8302	76.6162	-36.8967	-31.4373	121.884	-61.774	-39.9604	102.679	-81.9229	-22.7296	114.63	-63.1057	3.73208	133.565	-80.3611	-37.0543	117.382	-94.5663	-13.2495	134.602	-68.56	11.2304	152.085	-89.1033	-27.4303	129.252	-102.451	-8.35757	138.079	-81.013	18.3532	175.993	-90.9156	-27.2886	170.901	-104.087	-38.1189	162.709	-123.047	-56.9391	183.236	-47.6201	-2.46883	191.966	-38.9232	23.4981	162.608	-19.0075	9.08625	
172	1.43333	133.09	-17.8835	21.6853	111.589	-22.093	4.44266	88.9419	-22.3382	-17.9355	74.4119	-25.6564	-32.431	115.758	-56.0255	-37.3129	91.3035	-69.6081	-17.5754	109.785	-52.8103	7.10264	122.806	-75.3263	-33.7914	101.997	-83.2172	-8.35948	126.35	-64.0547	12.5351	136.755	-89.6639	-24.1485	117.676	-100.099	-5.11124	124.91	-75.398	18.7992	166.553	-96.8862	-17.8346	156.185	-112.346	-33.9219	141.958	-125.6	-48.5055	179.304	-54.5594	-2.68245	189.093	-43.288	23.2413	167.377	-23.9589	7.78112	
173	1.44167	137.01	-13.8335	21.744	113.859	-16.7147	4.17471	90.8667	-13.5467	-17.7981	73.3506	-14.2823	-31.457	107.317	-52.3871	-36.1576	85.2683	-61.5292	-15.8544	106.878	-48.6838	8.42828	115.312	-74.3778	-30.5032	92.1621	-75.1354	-6.72006	121.629	-56.1253	13.4713	126.93	-86.7867	-20.6554	103.256	-89.6507	-1.19217	119.269	-68.056	21.4985	152.835	-98.958	-13.926	140.376	-109.612	-28.4106	126.095	-124.672	-43.4109	173.573	-58.5128	0.909886	189.078	-48.3542	24.7097	165.166	-22.8854	4.51557	
174	1.45	141.118	-8.81404	20.3289	115.544	-10.5821	0.0440871	95.409	-7.01731	-15.5048	76.0895	-3.75001	-29.9263	104.416	-47.8872	-34.9526	80.8536	-48.3733	-14.5225	105.758	-38.7323	9.34517	109.662	-70.2386	-27.5055	86.0504	-67.0701	-6.3255	115.821	-47.3984	15.307	116.99	-84.3027	-17.4806	93.1869	-80.6104	6.29104	113.644	-62.948	25.5742	138.852	-98.7315	-11.2157	125.274	-110.39	-23.1044	106.409	-121.983	-36.9646	170.06	-64.243	0.0998612	185.138	-57.1341	27.261	167.847	-28.8422	5.74458	
175	1.45833	145.967	-8.23249	16.871	120.555	-5.11078	-1.62641	100.046	1.62825	-20.4809	83.7202	1.19955	-30.2775	105.195	-43.4212	-33.2412	79.277	-38.0293	-13.6797	105.597	-28.2572	8.64661	103.407	-61.9889	-26.1548	81.0368	-52.3236	-0.544441	112.224	-46.4579	17.664	105.606	-79.4507	-13.1557	85.0898	-69.1312	7.37832	104.418	-54.7938	25.8577	125.524	-98.9673	-8.51274	109.933	-105.565	-20.0132	94.3028	-118.353	-29.8923	164.986	-71.2383	5.83553	179.2	-59.557	29.2957	169.781	-35.915	3.10912	
176	1.46667	152.125	-7.93549	16.1139	128.635	-1.29951	-3.41569	108.51	8.62903	-24.5021	91.7106	9.18266	-35.828	103.483	-39.6626	-32.8351	81.0854	-25.0636	-15.1033	104.356	-19.8726	7.39561	97.3002	-57.126	-24.8048	79.2473	-42.4773	-2.55087	111.89	-40.1356	17.9314	99.0234	-69.4065	-13.2065	79.5325	-58.1067	4.06773	103.908	-44.5738	28.5341	116.928	-92.5761	-3.27401	100.369	-102.223	-11.6162	81.9973	-109.44	-22.7611	154.798	-73.1662	5.92179	176.299	-64.2617	31.6267	167.908	-38.4545	5.09743	
177	1.475	158.54	-4.60692	14.659	136.227	5.16657	-5.04961	116.877	9.37868	-27.5212	103.494	22.4315	-40.3531	106.032	-30.1996	-35.6183	84.603	-18.3664	-14.254	108.181	-14.3148	6.21961	100.392	-52.2645	-24.8627	80.5928	-30.5223	-5.03801	115.271	-32.14	16.5953	97.1287	-67.2852	-9.3619	77.0215	-50.1908	6.02317	100.753	-35.416	27.0629	110.247	-87.5818	2.45323	95.295	-90.2755	-10.8011	72.9546	-94.6946	-24.3514	155.321	-70.4098	10.5193	173.467	-66.5117	34.0238	171.932	-39.0983	5.22646	
178	1.48333	164.058	-6.03187	14.248	142.327	6.2921	-10.1663	128.42	18.9982	-31.3447	115.299	27.0941	-45.5429	112.495	-26.4517	-36.0249	88.2339	-9.99746	-19.4623	114.285	-7.9146	4.57594	101.447	-44.7644	-26.2867	81.598	-24.1571	-10.3114	117.297	-26.3274	13.8471	95.6288	-57.2087	-12.9761	77.3121	-42.6585	4.49696	100.341	-29.248	25.2118	108.715	-77.7848	1.22217	91.0118	-81.779	-11.0073	71.873	-88.2122	-21.6996	150.935	-67.7621	9.87479	169.863	-67.0913	32.8259	169.768	-41.4357	5.99811	
179	1.49167	168.79	-4.60265	9.64927	151.278	7.45003	-9.58283	138.518	19.1351	-29.4791	125.348	28.345	-47.074	111.136	-23.9529	-37.8967	95.7778	-1.02165	-22.8373	114.656	-4.56781	1.61229	104.663	-40.5835	-29.1858	83.9764	-20.7858	-12.5594	115.372	-20.5183	12.1911	97.0832	-54.6818	-13.1285	81.0231	-30.9868	-0.309089	105.929	-21.8298	21.2277	105.072	-72.0154	-3.71525	90.2612	-74.2012	-12.6668	69.6389	-80.1893	-25.4556	150.834	-67.4082	10.9634	169.641	-65.1518	35.1168	174.061	-40.2392	4.90832	
180	1.5	173.914	-4.30696	11.4942	160.778	11.864	-8.82936	146.645	22.2203	-34.1119	138.053	36.0754	-50.11	121.941	-21.8062	-39.122	99.9364	0.56973	-24.4899	123.927	1.76656	-1.42124	107.318	-34.3509	-31.7628	91.2106	-12.1337	-16.5744	120.092	-16.206	10.0783	104.327	-46.403	-18.5279	84.8552	-25.3906	-1.1039	107.166	-17.0437	18.2475	109.305	-67.6131	-2.56111	90.9356	-69.8164	-15.9488	71.7843	-73.7509	-27.6459	150.565	-67.4676	6.81024	172.974	-64.5863	34.6959	178.28	-39.877	4.94323	
181	1.50833	178.514	-2.32031	9.6072	166.688	13.3746	-12.0604	156.926	26.2877	-32.7819	146.108	36.3814	-50.6855	129.066	-16.6778	-43.6163	108.173	5.29159	-30.1993	127.951	4.57478	-6.41394	114.414	-33.0793	-34.1888	96.2812	-8.55329	-20.0749	127.265	-9.88614	6.6896	107.035	-46.9672	-20.0528	88.9026	-23.4953	-7.40168	112.479	-11.8504	11.5152	109.266	-65.61	-7.73837	93.5878	-63.6549	-21.7039	79.5419	-67.1545	-33.8638	157.913	-61.0227	6.60768	173.569	-61.5829	30.7328	179.932	-37.7819	6.43974	
182	1.51667	185.364	0.331533	9.97149	173.203	14.4175	-9.04142	164.343	29.3658	-39.0196	154.449	39.612	-55.2028	134.81	-12.7152	-49.1879	114.844	7.69551	-35.9202	132.049	6.07321	-9.72373	123.312	-28.9062	-39.3776	101.924	-7.18837	-27.4835	133.313	-6.74112	2.73062	116.496	-42.337	-27.5791	93.7915	-19.5758	-16.4223	116.274	-13.5389	8.52935	115.017	-62.4477	-14.6937	100.378	-59.2112	-29.501	86.7026	-61.1849	-43.107	159.118	-61.3089	1.76802	173.015	-61.5682	33.5313	186.631	-37.1384	3.88895	
183	1.525	186.793	-1.44241	11.7166	177.242	16.1136	-12.051	172.177	31.4401	-36.5714	161.531	41.6576	-55.6057	146.457	-14.8727	-49.6716	126.271	11.5106	-42.5826	141.879	11.3823	-13.9133	129.343	-28.6767	-44.0177	110.041	-3.43682	-32.4122	135.432	-9.06364	-2.00926	119.832	-40.7891	-37.0694	101.846	-17.372	-26.0807	120.442	-10.862	-1.34886	120.925	-61.3858	-17.3273	107.655	-59.7199	-36.7963	94.25	-56.4603	-57.3815	163.249	-60.7819	1.03907	175.021	-60.4896	32.3261	189.715	-35.4087	3.09906	
184	1.53333	190.165	2.00221	9.41308	179.715	16.0884	-13.7683	174.104	32.3312	-38.2125	163.335	39.416	-55.8756	155.708	-8.24879	-54.5887	133.323	13.2246	-44.107	145.569	9.76765	-14.9885	138.478	-25.6022	-51.3599	118.248	-5.4593	-41.7219	140.92	-8.23166	-5.23641	132.936	-40.4048	-42.0625	111.326	-17.4394	-38.5882	124.197	-12.5153	-7.59716	132.459	-58.0896	-25.5811	118.139	-61.4903	-45.7491	106.359	-59.594	-64.512	169.425	-57.0609	-0.950151	179.422	-57.6369	26.3393	193.069	-33.3099	4.98572	
